<?xml version="1.0" encoding="UTF-8"?>
<svg id="Camada_2" data-name="Camada 2" xmlns="http://www.w3.org/2000/svg" viewBox="0 0 4361.31 4083.46">
  <defs>
    <style>
      .cls-1 {
        fill: none;
        stroke: #fff;
        stroke-miterlimit: 10;
        stroke-width: 14px;
      }

      .cls-2 {
        opacity: .19;
      }
    </style>
  </defs>
  <g id="Camada_1-2" data-name="Camada 1">
    <g class="cls-2">
      <path class="cls-1" d="M3859.59,163.39C3698.37,69.52,3511.9,2.54,3321.02,2.45,3321.02,2.45,2.42,1,2.42,1c149.2,148.69,436.55,434.45,610.32,606.96,29.97,29.75,70.46,46.43,112.69,46.43l2551.21.16c54.06,0,102.28,13.62,150.43,30.56,3.72,1.31,7.43,2.75,11.04,4.33,298.39,131.15,278.21,516.94,110.81,748.68-108.73,160.56-289.63,279.92-487.22,280.34l-172.37.37c-19.64.04-39.21,3.44-57.43,10.78-.31.12-.61.25-.92.37-29.37,11.99-54.03,33.25-71.37,59.82l-368.01,563.92,738.01-.71c284.2-.27,553.41-111.66,771.72-290.69,592.81-491.18,644.99-1466.18-41.76-1898.93Z"/>
      <path class="cls-1" d="M2587.08,1264.27l-3.53-1.16-1751.56-.14,520.85,528.75c-188.78,694.77-430.03,1586.29-601.86,2286.82l590.53-841.73c429.14-611.85,879.42-1239.23,1275.66-1883.17,20.98-32.55,6.7-77.34-30.11-89.37Z"/>
    </g>
  </g>
</svg>
